<svg height="512" viewBox="0 0 192 192" width="512" xmlns="http://www.w3.org/2000/svg"><path d="m192 82.126v-60.16l-44.118 32.085z"/><path d="m0 82.125 44.117-28.074-44.117-32.086z"/><path d="m191.607 5.526a8 8 0 0 0 -7.607-5.526h-176a8 8 0 0 0 -4.7 14.47l88 64a8 8 0 0 0 9.41 0l88-64a8 8 0 0 0 2.897-8.944z"/><path d="m151.918 84.285 33.191 51.629a8 8 0 0 0 6.891-7.914v-32a8 8 0 0 0 -3.705-6.75l-47.367-30.142-14.472 10.526a31.843 31.843 0 0 1 25.462 14.651z"/><path d="m95.7 87.988a15.885 15.885 0 0 1 -9.111-3.049l-35.518-25.831-47.366 30.142a8 8 0 0 0 -3.705 6.75v32a8 8 0 0 0 8 8h56.836z"/><path d="m187.882 155.021-42.694-66.411a24 24 0 0 0 -40.376 0l-42.694 66.411a24 24 0 0 0 20.189 36.979h85.386a24 24 0 0 0 20.189-36.979zm-54.882 12.979h-16v-16h16zm0-24h-16v-32h16z"/></svg>