<svg id="Capa_1" enable-background="new 0 0 512 512" height="512" viewBox="0 0 512 512" width="512" xmlns="http://www.w3.org/2000/svg"><g><path d="m213.224 256.126c-8.224 12.567-17.247 33.826-15.614 52.378 1.423 16.163 11.195 31.618 28.261 44.696 7.887 6.044 15.705 10.383 21.02 13.018-1.421 3.983-2.988 7.922-4.728 11.803-1.694 3.78-.004 8.217 3.775 9.912 3.701 1.66 8.197.05 9.912-3.775 2.409-5.372 4.534-10.842 6.384-16.392 14.974-6.276 37.998-19.63 47.75-44.803 7.476-19.298 5.853-42.186-4.57-64.446-10.592-22.622-29.665-42.689-53.706-56.506-3.646-2.094-8.025-2.142-11.717-.126-3.679 2.009-5.999 5.706-6.205 9.888-.34 6.885-1.739 13.458-4.156 19.534-4.375 11.001-10.175 15.295-16.406 24.819zm30.345-19.276c2.435-6.12 4.042-12.612 4.799-19.358 19.437 12.14 34.772 28.823 43.463 47.384 8.671 18.518 10.151 37.222 4.167 52.667-2.958 7.636-10.391 20.572-28.546 31 2.343-11.069 3.538-22.555 3.771-33.868l13.488-15.914c2.678-3.16 2.288-7.893-.873-10.571-3.16-2.678-7.893-2.287-10.571.873l-3.115 3.675c-1.115-9.923-3.077-19.774-5.895-29.496-1.153-3.979-5.313-6.271-9.292-5.116-3.978 1.153-6.269 5.313-5.116 9.292 3.969 13.696 6.096 27.67 6.368 41.734-4.606-5.287-9.782-10.077-15.447-14.26-3.332-2.462-8.028-1.755-10.489 1.578-2.46 3.332-1.754 8.028 1.578 10.489 5.733 4.234 10.883 9.192 15.306 14.738 2.888 3.621 5.455 7.521 7.692 11.596-.817 6.188-2.008 12.308-3.535 18.346-4.486-2.346-10.411-5.807-16.329-10.343-13.833-10.601-21.383-22.075-22.442-34.105-1.214-13.786 5.767-31.455 13.223-42.85 6.636-10.142 12.551-14.309 17.795-27.491zm208.866-164.69-6.57-20.585c-4.119-12.905-15.987-21.575-29.533-21.575h-90.379c1.031-16.148-11.177-30.007-27.5-30h-84.905c-16.209-.025-28.681 13.976-27.5 30h-90.38c-13.546 0-25.414 8.67-29.533 21.575l-6.57 20.585c-1.471 4.609-.646 9.693 2.208 13.6 2.855 3.908 7.448 6.24 12.287 6.24h12.714l13.23 383.79c.704 20.305 17.165 36.21 37.476 36.21h237.04c20.311 0 36.772-15.905 37.476-36.212l3.843-111.481c.143-4.14-3.098-7.611-7.237-7.754-4.109-.136-7.611 3.097-7.754 7.237l-3.843 111.479c-.423 12.186-10.299 21.731-22.485 21.731h-23.248l14.464-405h44.478l-8.205 236.537c-.144 4.14 3.096 7.612 7.236 7.756.088.003.176.004.265.004 4.021 0 7.35-3.189 7.491-7.24l8.223-237.057h12.716c4.838 0 9.431-2.333 12.286-6.24 2.854-3.906 3.68-8.991 2.209-13.6zm-238.888-57.16h84.905c7.821-.062 13.593 7.3 12.5 15h-109.905c-1.073-7.78 4.586-15 12.5-15zm-76.067 482c-12.186 0-22.062-9.545-22.484-21.729l-13.213-383.271h44.48l14.464 405zm300.634-420.088c-.065.088-.113.088-.174.088h-209.051c-4.142 0-7.5 3.358-7.5 7.5s3.358 7.5 7.5 7.5h121.838l-14.464 405h-160.526l-14.465-405h32.419c4.142 0 7.5-3.358 7.5-7.5s-3.358-7.5-7.5-7.5h-119.631c-.061 0-.109 0-.173-.088s-.049-.133-.031-.191l6.57-20.585c2.125-6.661 8.251-11.136 15.242-11.136h320.664c6.991 0 13.117 4.475 15.243 11.135l6.57 20.585c.018.059.033.104-.031.192z"/></g></svg>