<svg id="Layer_3" enable-background="new 0 0 64 64" height="512" viewBox="0 0 64 64" width="512" xmlns="http://www.w3.org/2000/svg"><g><path d="m6 56h7.999v2h-7.999z"/><path d="m13 41h5.999v6h-5.999z"/><path d="m42.999 19h-8.001v7c0 .553-.447 1-1 1h-7.999c-.553 0-1-.447-1-1v-7h-7.999v20h25.999zm-13.001 17.999c0 .553-.447 1-1 1h-9.999c-.553 0-1-.447-1-1v-4c0-.553.447-1 1-1h9.999c.553 0 1 .447 1 1zm6.001 1h-1.999v-5h1.999zm3 0h-1.999v-5h1.999zm2.999 0h-1.999v-5h1.999z"/><path d="m26.999 19h5.999v6h-5.999z"/><path d="m19.999 34h7.999v2h-7.999z"/><path d="m20.999 47.999c0 .553-.447 1-1 1h-7.999c-.553 0-1-.447-1-1v-7h-8v20h25.999v-19.999h-8zm-5 11c0 .553-.447 1-1 1h-9.999c-.553 0-1-.447-1-1v-4c0-.553.447-1 1-1h9.999c.553 0 1 .447 1 1zm10.001-3.999h1.999v5h-1.999zm-3 0h1.999v5h-1.999zm-1.001 4.999h-1.999v-5h1.999z"/><path d="m41 41h5.999v6h-5.999z"/><path d="m34 56h7.999v2h-7.999z"/><path d="m36.387 13.622-1.29-.761c-.474-.279-.633-.887-.358-1.362 2.319-4.009 6.634-6.499 11.259-6.499 7.169 0 13 5.832 13 13s-5.831 13-13 13c-.333 0-.667-.016-.999-.041v2.007c.333.022.667.034 1.001.034 8.271 0 15-6.729 15-15s-6.729-15-15-15c-5.45 0-10.48 2.963-13.127 7.734-.129.233-.346.404-.602.477-.257.075-.532.041-.763-.09l-1.611-.906 1.725 4.599z"/><path d="m48.999 47.999c0 .553-.447 1-1 1h-7.999c-.553 0-1-.447-1-1v-7h-8v20h25.999v-19.999h-8zm-5 11c0 .553-.447 1-1 1h-9.999c-.553 0-1-.447-1-1v-4c0-.553.447-1 1-1h9.999c.553 0 1 .447 1 1zm10.001-3.999h1.999v5h-1.999zm-3 0h1.999v5h-1.999zm-1.001 4.999h-1.999v-5h1.999z"/></g></svg>