<?xml version="1.0"?>
<svg xmlns="http://www.w3.org/2000/svg" viewBox="0 0 64 64" width="512" height="512"><g id="Outline"><g><path d="M3,14a1,1,0,0,0,1-1V7A3,3,0,0,1,7,4H27a3,3,0,0,1,3,3V19a1,1,0,0,0,2,0V7a5.006,5.006,0,0,0-5-5H7A5.006,5.006,0,0,0,2,7v6A1,1,0,0,0,3,14Z"/><path d="M3,44H4.886a50.937,50.937,0,0,0,16.8-2.858,1,1,0,0,0-.658-1.889A48.921,48.921,0,0,1,4.886,42H3a1,1,0,0,0,0,2Z"/><path d="M41.186,42.354A52.2,52.2,0,0,0,58.5,16.018l2.105.9a1,1,0,0,0,1.359-1.182l-3-11a1,1,0,0,0-1.379-.647l-11,5a1,1,0,0,0,.02,1.829l3.378,1.448a48.964,48.964,0,0,1-7.744,12.4,1,1,0,1,0,1.52,1.3,50.9,50.9,0,0,0,8.456-13.847,1,1,0,0,0-.531-1.3l-2.209-.947L57.344,6.4l2.146,7.869-1.261-.54a1,1,0,0,0-1.363.671A50.173,50.173,0,0,1,38.385,42H37.274A7.976,7.976,0,0,0,40,36a1,1,0,0,0-2,0,6,6,0,0,1-12,0V32.045a7.685,7.685,0,0,0,3.873-1.585A7.72,7.72,0,0,0,35.6,33H39a1,1,0,0,0,1-1V29a7.008,7.008,0,0,0-7-7H23a1,1,0,0,0-1,1v1H19a1,1,0,0,0-1,1v3.3L14.616,24.35a1,1,0,0,0-.759-.35H7a3,3,0,0,1-3-3V17a1,1,0,0,0-2,0v4a5.006,5.006,0,0,0,5,5h6.4l4.844,5.65A1,1,0,0,0,19,32a1.021,1.021,0,0,0,.347-.062A1,1,0,0,0,20,31V26h2v3a5,5,0,0,0,2,3.975V36a7.984,7.984,0,0,0,3,6.235V43.9l-.98,4.9A1,1,0,0,0,27.2,49.98l4.8-.96.183.036.779,8.568L32,58.586l-.962-.962.5-5.533a1,1,0,0,0-1.993-.182l-.545,6a1,1,0,0,0,.289.8l2,2a1,1,0,0,0,1.414,0l2-2a1,1,0,0,0,.289-.8l-.767-8.444,2.575.515A1,1,0,0,0,37.98,48.8L37.02,44H39a5.006,5.006,0,0,1,5,5V61a1,1,0,0,0,2,0V49A7.01,7.01,0,0,0,41.186,42.354ZM24,24h9a5.006,5.006,0,0,1,5,5v2H35.6a5.724,5.724,0,0,1-4.773-2.555,1,1,0,0,0-.733-.44,1.023,1.023,0,0,0-.806.288l-.123.123a5.721,5.721,0,0,1-3.859,1.677l-.348.012a.99.99,0,0,0-.616.258A2.931,2.931,0,0,1,24,29ZM35,43.411v.175l-3,3-3-3v-.175a7.935,7.935,0,0,0,6,0Zm-6.725,4.315.339-1.7,1.358,1.358Zm5.753-.34,1.358-1.358.339,1.7Z"/><path d="M24.986,42.924a1,1,0,0,0-1.152-.82A6.974,6.974,0,0,0,18,49v2.058A50.172,50.172,0,0,1,8.4,52H3a1,1,0,0,0,0,2H8.4a52.278,52.278,0,0,0,9.6-.908V61a1,1,0,0,0,2,0V49a4.98,4.98,0,0,1,4.166-4.924A1,1,0,0,0,24.986,42.924Z"/><path d="M39,51a1,1,0,0,0-1,1v9a1,1,0,0,0,2,0V52A1,1,0,0,0,39,51Z"/><path d="M25,51a1,1,0,0,0-1,1v9a1,1,0,0,0,2,0V52A1,1,0,0,0,25,51Z"/><circle cx="35" cy="35" r="1"/><circle cx="29" cy="35" r="1"/><path d="M22,12a5,5,0,1,0-8,3.979V16a1,1,0,0,0,0,2v1a3,3,0,0,0,6,0V18a1,1,0,0,0,0-2v-.021A5.005,5.005,0,0,0,22,12Zm-4,7a1,1,0,0,1-2,0V18h2Zm.5-4.419a1,1,0,0,0-.5.864V16H16v-.555a1,1,0,0,0-.5-.864A2.968,2.968,0,0,1,14,12a3,3,0,0,1,6,0A2.968,2.968,0,0,1,18.5,14.581Z"/><path d="M24,10a1,1,0,0,0,.707-.293l1-1a1,1,0,1,0-1.414-1.414l-1,1A1,1,0,0,0,24,10Z"/><path d="M28,12a1,1,0,0,0-1-1H25a1,1,0,0,0,0,2h2A1,1,0,0,0,28,12Z"/><path d="M23.293,15.707l1,1a1,1,0,0,0,1.414-1.414l-1-1a1,1,0,0,0-1.414,1.414Z"/><path d="M10.707,8.293l-1-1A1,1,0,1,0,8.293,8.707l1,1a1,1,0,0,0,1.414-1.414Z"/><path d="M10,12a1,1,0,0,0-1-1H7a1,1,0,0,0,0,2H9A1,1,0,0,0,10,12Z"/><path d="M9,17a1,1,0,0,0,.707-.293l1-1a1,1,0,0,0-1.414-1.414l-1,1A1,1,0,0,0,9,17Z"/><path d="M53,46a1,1,0,0,0,0,2h2a1,1,0,0,0,0-2Z"/><path d="M61,42H47a1,1,0,0,0,0,2h1v3a6,6,0,0,0,3,5.188V56a3,3,0,0,0-3,3v2a1,1,0,0,0,1,1H59a1,1,0,0,0,1-1V59a3,3,0,0,0-3-3V52.188A6,6,0,0,0,60,47a1,1,0,0,0-2,0,4,4,0,0,1-8,0V44H61a1,1,0,0,0,0-2ZM58,59v1H50V59a1,1,0,0,1,1-1h6A1,1,0,0,1,58,59Zm-3-6.09V56H53V52.91a5.6,5.6,0,0,0,2,0Z"/></g></g></svg>
