<svg height="512" viewBox="0 0 64 64" width="512" xmlns="http://www.w3.org/2000/svg"><g id="Line"><g fill="#c4a2fc"><rect height="7" rx="3" width="38" x="25" y="56"/><rect height="7" rx="3" width="38" x="25" y="13"/><path d="m30 51v3h28v-3a14.013 14.013 0 0 0 -8.834-13 14.013 14.013 0 0 0 8.834-13v-3h-28v3a14.013 14.013 0 0 0 8.834 13 14.013 14.013 0 0 0 -8.834 13z"/></g><path d="m24 10.25v-3.25h1a1 1 0 0 0 1-1v-4a1 1 0 0 0 -1-1h-8a1 1 0 0 0 -1 1v4a1 1 0 0 0 1 1h1v3.25a20 20 0 1 0 6 0zm-6-7.25h6v2h-6zm2 7v-3h2v3zm14.4 31.981-2.688-2.688a1 1 0 0 0 -1.414 1.414l2.683 2.693a17.888 17.888 0 0 1 -23.962 0l2.688-2.688a1 1 0 0 0 -1.414-1.414l-2.688 2.683a17.888 17.888 0 0 1 0-23.962l2.688 2.688a1 1 0 0 0 1.414-1.414l-2.688-2.688a17.888 17.888 0 0 1 23.962 0l-2.688 2.688a1 1 0 0 0 1.414 1.414l2.693-2.688a17.888 17.888 0 0 1 0 23.962z" fill="#151a6a"/><path d="m32.263 29.035-9.389-2.555a3.9 3.9 0 0 0 -1.874-.48 4 4 0 1 0 1.868 7.532l9.4-2.567a1 1 0 0 0 0-1.93zm-13.263.965a2 2 0 1 1 2 2 2 2 0 0 1 -2-2zm5.889.906a3.753 3.753 0 0 0 0-1.8l3.311.894z" fill="#151a6a"/></g></svg>